<svg width="24" height="24" viewBox="0 0 24 24" fill="white" xmlns="http://www.w3.org/2000/svg">
  <path d="M22.46 4.85935C21.72 5.14935 20.92 5.35935 20.08 5.47935C20.9393 4.89294 21.5993 3.98275 21.8593 2.92214C21.0193 3.48812 20.0893 3.89294 19.0793 4.10275C18.2793 3.26275 17.1893 2.78935 15.9993 2.78935C13.3593 2.78935 11.1393 5.00935 11.1393 7.64935C11.1393 8.03935 11.1893 8.40935 11.2793 8.75935C7.3793 8.55935 3.93929 6.66935 1.59929 3.89935C1.19929 4.51935 0.999291 5.24935 0.999291 6.01935C0.999291 7.50935 1.75929 8.83935 2.85929 9.58935C2.19929 9.56935 1.55929 9.37935 0.999291 9.05935V9.12935C0.999291 11.6193 2.57929 13.7693 4.61929 14.4293C4.19929 14.5393 3.74929 14.5993 3.27929 14.5993C2.97929 14.5993 2.68929 14.5693 2.40929 14.5093C2.99929 16.5293 4.71929 18.0893 6.83929 18.1393C5.25929 19.4493 3.25929 20.2093 1.13929 20.2093C0.749291 20.2093 0.369291 20.1893 0 20.1393C2.13929 21.8193 4.73929 22.6393 7.43929 22.6393C15.9793 22.6393 20.0793 15.7394 20.0793 9.40935C20.0793 9.22935 20.0793 9.04935 20.0693 8.86935C20.8993 8.21935 21.6193 7.38935 22.1793 6.42935C21.4393 6.78935 20.6593 7.02935 19.8393 7.14935C20.6393 6.51935 21.3193 5.68935 21.8793 4.72935C21.1493 5.08935 20.3893 5.34935 19.5993 5.46935C20.3593 4.87935 21.0993 4.15935 21.6993 3.33935Z" />
</svg>
